<svg version="1.1" id="Logo_00000152252418857761589150000000798012301435666049_" xmlns:x="ns_extend;" xmlns:i="ns_ai;" xmlns:graph="ns_graphs;" xmlns="http://www.w3.org/2000/svg" xmlns:xlink="http://www.w3.org/1999/xlink" x="0px" y="0px" viewBox="0 0 884.1 162.7" style="enable-background:new 0 0 884.1 162.7;" xml:space="preserve">
 <style type="text/css">
  .st0{fill:none;}
	.st1{fill:#FFFFFF;}
 </style>
 <metadata>
  <sfw xmlns="ns_sfw;">
   <slices>
   </slices>
   <sliceSourceBounds bottomLeftOrigin="true" height="233" width="1000" x="0" y="0">
   </sliceSourceBounds>
  </sfw>
 </metadata>
 <rect x="-77.7" y="-25.6" class="st0" width="1000" height="233">
 </rect>
 <g>
  <g>
   <path d="M160.7,22.4l-52.5,4.7c-9.1-5.3-18.1-7.4-27.6-7.4c-2.5,0-5.1,0.2-7.7,0.7L18,0.1c-2.2-0.8-3.8,2.1-1.9,3.5l33.7,26.1
			C42.7,34.1,36,39.9,30.1,46.5C20.1,58,7.5,89.8,1.3,106.3c-2.6,7.1-1.3,15,3.5,20.8c11.2,13.6,34.4,35.6,79,35.6
			c40.9,0,61.6-18.4,71.3-31.8c5.4-7.5,7-17,4.3-25.8c-4.4-14.9-13.7-40.7-28.8-58.4c-0.5-0.6-1.1-1.2-1.6-1.8l32.7-19.4
			C163.3,24.7,162.5,22.3,160.7,22.4z">
   </path>
  </g>
  <g>
   <path class="st1" d="M105.9,118.2c-3.9,1.4-12.7,3.5-22.5-1.6c-0.5-0.3-1,0.4-0.6,0.8c3.1,3.3,8.6,9.2,12,12
			c0.7,0.6,1.8,0.5,2.4-0.2l9.3-10.3C106.9,118.7,106.5,118.1,105.9,118.2z">
   </path>
   <path class="st1" d="M142.2,75.5c-5-10.8-12.4-20.9-23.7-22.1c-2-0.2-4.1,0.2-5.8,1.3L100.4,62c-3.1,1.8-6.9,1.6-9.7-0.6L80,53.1
			c-3.6-2.8-7.7-4.8-12.1-5.8C49.6,43,37.2,52.6,27.8,70.6c-9,17.2-4,42,18.1,47.8c23.3,6.2,38.7-19.7,44.9-28.3
			c1.2-1.7,3.6-1.7,4.8,0c9.6,13,22.4,26.9,36.2,24.1C150,110.5,147.8,87.7,142.2,75.5z M74.7,89.2c-4.5,3-10.2,2.3-13.6-2.8
			c-3.4-5.1-1.9-10.7,2.6-13.7s10.2-2.3,13.6,2.8C80.7,80.6,79.2,86.2,74.7,89.2z M122.4,90.1c-4.5,3-10.2,2.3-13.6-2.8
			c-3.4-5.1-1.9-10.7,2.6-13.7s10.2-2.3,13.6,2.8C128.4,81.5,126.9,87.1,122.4,90.1z">
   </path>
   <path class="st1" d="M95.4,96.7c-0.9-1-2.6-1-3.5,0.1l-9.8,11.6c-0.5,0.5-0.4,1.4,0.2,1.8c2.3,1.6,7.8,5.2,13.2,5.2
			c5,0,9.5-1.9,11.7-3c0.7-0.4,0.9-1.3,0.4-1.9L95.4,96.7z">
   </path>
  </g>
  <g>
   <g>
    <path d="M206.6,129.6V52h17.2v33.7h57.1V52h17.2v77.6h-17.2v-29.4h-57.1v29.4H206.6z">
    </path>
    <path d="M346.9,131.5c-11.4,0-20.6-3-27.5-8.9c-7-5.9-10.4-13.7-10.4-23.4s3.5-17.5,10.4-23.4c7-5.9,16.1-8.9,27.5-8.9
				c11.5,0,20.7,3,27.7,8.9S385,89.5,385,99.2s-3.5,17.5-10.4,23.4C367.6,128.6,358.3,131.5,346.9,131.5z M346.9,118.2
				c6.6,0,12-1.7,16-5.2s6.1-8,6.1-13.7s-2-10.4-6.1-13.8c-4-3.5-9.4-5.2-16-5.2s-11.8,1.8-15.9,5.3c-4,3.5-6.1,8.1-6.1,13.8
				c0,5.7,2,10.2,6.1,13.7C335,116.5,340.3,118.2,346.9,118.2z">
    </path>
    <path d="M430.6,131.5c-11.4,0-20.6-3-27.5-8.9c-7-5.9-10.4-13.7-10.4-23.4s3.5-17.5,10.4-23.4c7-5.9,16.1-8.9,27.5-8.9
				c11.5,0,20.7,3,27.7,8.9s10.4,13.7,10.4,23.4s-3.5,17.5-10.4,23.4C451.3,128.6,442.1,131.5,430.6,131.5z M430.6,118.2
				c6.6,0,12-1.7,16-5.2s6.1-8,6.1-13.7s-2-10.4-6.1-13.8c-4-3.5-9.4-5.2-16-5.2c-6.6,0-11.8,1.8-15.9,5.3c-4,3.5-6.1,8.1-6.1,13.8
				c0,5.7,2,10.2,6.1,13.7C418.8,116.5,424.1,118.2,430.6,118.2z">
    </path>
    <path d="M500.5,130.8c-7.6,0-11.9-3.5-14.1-6.7c-2.3-3.2-4.1-7.3-4.1-16.3V81.4h-8.7V69h11.2V52h14.8v17h17.5v12.4h-17.5v22.7
				c-0.1,6.8,1,9.2,2.6,10.9c2.9,2.9,11.7,0.9,14.9-1.1V127C513.3,129.6,506.7,130.8,500.5,130.8z">
    </path>
    <path d="M560.9,131.5c-10.8,0-21.6-1.6-32.5-4.7V113c9.1,3.5,19,5.2,29.7,5.2c7.7,0,13.2-0.5,16.5-1.5s5-2.7,5-5.2
				c0-2.3-1.8-4-5.5-4.9s-8.2-1.5-13.5-1.8c-5.3-0.2-10.6-0.7-15.9-1.4c-5.3-0.7-9.8-2.4-13.5-5c-3.7-2.7-5.5-6.4-5.5-11.3
				c0-6.6,3.2-11.6,9.6-15c6.4-3.4,15.1-5.1,26.1-5.1c8.7,0,18.8,1.1,30.3,3.4v13.3c-9.9-2.1-19.5-3.2-28.5-3.2
				c-13.7,0-20.6,2.1-20.6,6.3c0,2.1,1.9,3.6,5.6,4.4c3.7,0.8,8.2,1.4,13.5,1.8c5.3,0.3,10.5,0.9,15.8,1.6c5.3,0.8,9.8,2.5,13.5,5.3
				s5.6,6.6,5.6,11.5c0,6.8-3.2,11.8-9.5,15.1C580.8,129.9,572.1,131.5,560.9,131.5z">
    </path>
    <path d="M678.9,69v60.7H660l2.4-25h-1c-2.8,18-12.8,26.9-29.8,26.9c-8.7-0.2-15.1-3-19.2-8.6c-4-5.5-6.1-14.8-6.1-27.7V69h17.2
				v24.3c0,9.1,1.3,15.6,3.9,19.5c2.6,3.9,6.8,5.8,12.7,5.8c6.6,0,11.8-3,15.6-9c3.9-6,5.8-13.9,5.8-23.9V69H678.9z">
    </path>
    <path d="M702.3,63.1c-3.3,0-5.9-0.8-7.8-2.5c-1.9-1.7-2.8-4.1-2.8-7.3c0-3.2,0.9-5.7,2.8-7.3c1.9-1.6,4.4-2.4,7.8-2.4
				c3.4,0,6,0.8,7.9,2.4s2.9,4,2.9,7.3C713.1,59.8,709.5,63.1,702.3,63.1z M693.9,129.6V69h17.2v60.7h-17.2V129.6z">
    </path>
    <path d="M808.2,131.5c-11,0-19.8-3-26.5-8.9c-6.7-5.9-10-13.7-10-23.4s3.3-17.5,10-23.4s15.5-8.9,26.5-8.9
				c10.8,0,19.6,2.5,26.3,7.6s10.1,11.7,10.3,20v9.9h-56.5c1,4.9,3.5,8.5,7.7,10.7s10.3,3.3,18.4,3.3c10.7,0,15.5-1.7,20.7-3.6
				c0.8-0.3,6.5-2.8,7-3v13.8c-6.1,2.3-11.4,3.9-15.9,4.7C821.6,131.1,815.6,131.5,808.2,131.5z M787.8,96.1l40.5-1
				c-0.2-5.3-2-9.2-5.2-11.5s-8.2-3.5-14.9-3.5c-6.5,0-11.3,1.2-14.6,3.7C790.3,86.4,788.4,90.5,787.8,96.1z">
    </path>
    <g>
     <path d="M875.4,84.4c1.2-1,1.7-2.3,1.7-4s-0.6-3-1.7-4c-1.2-1-2.8-1.5-4.8-1.5h-6.5V91h2.7v-5.2h3.7c0.2,0,0.4,0,0.7,0l3.4,5.2
					h2.8l-3.7-5.7C874.3,85.1,874.9,84.8,875.4,84.4z M870.4,83.6h-3.6v-6.4h3.6c1.3,0,2.3,0.3,3,0.8c0.7,0.6,1.1,1.3,1.1,2.4
					c0,1-0.4,1.8-1.1,2.4C872.7,83.3,871.7,83.6,870.4,83.6z">
     </path>
     <path d="M883,77.3c-0.7-1.7-1.7-3.2-3-4.5s-2.8-2.3-4.5-3s-3.6-1.1-5.6-1.1s-3.9,0.4-5.6,1.1c-1.7,0.7-3.3,1.7-4.5,3
					c-1.3,1.3-2.3,2.8-3,4.5s-1.1,3.6-1.1,5.6s0.4,3.8,1.1,5.6c0.7,1.7,1.7,3.2,3,4.5s2.8,2.3,4.5,3s3.6,1.1,5.6,1.1
					s3.9-0.4,5.6-1.1c1.7-0.7,3.2-1.7,4.5-3s2.3-2.8,3-4.6c0.7-1.7,1.1-3.6,1.1-5.6C884.1,80.9,883.8,79,883,77.3z M881.3,87.8
					c-0.6,1.5-1.5,2.8-2.6,4c-1.1,1.1-2.4,2-4,2.7c-1.5,0.6-3.1,1-4.9,1c-1.8,0-3.4-0.3-4.9-0.9s-2.8-1.5-3.9-2.6
					c-1.1-1.1-2-2.4-2.6-4c-0.6-1.5-0.9-3.1-0.9-4.9s0.3-3.4,0.9-4.9c0.6-1.5,1.5-2.8,2.6-4c1.1-1.1,2.4-2,3.9-2.7
					c1.5-0.6,3.2-0.9,4.9-0.9c1.8,0,3.4,0.3,4.9,0.9s2.8,1.5,3.9,2.6c1.1,1.1,2,2.4,2.6,3.9s0.9,3.1,0.9,4.9
					C882.2,84.7,881.9,86.3,881.3,87.8z">
     </path>
    </g>
    <path d="M749.6,130.8c-7.6,0-11.9-3.5-14.1-6.7c-2.3-3.2-4.1-7.3-4.1-16.3V81.4h-8.7V69h11.2V52h14.8v17h17.5v12.4h-17.5v22.7
				c-0.1,6.8,1,9.2,2.6,10.9c2.9,2.9,11.7,0.9,14.9-1.1V127C762.4,129.6,755.7,130.8,749.6,130.8z">
    </path>
   </g>
  </g>
 </g>
</svg>